<svg xmlns="http://www.w3.org/2000/svg" viewBox="0 0 512 512">
  <defs>
    <linearGradient id="bg" x1="0%" y1="0%" x2="100%" y2="100%">
      <stop offset="0%" style="stop-color:#7c3aed"/>
      <stop offset="100%" style="stop-color:#6366f1"/>
    </linearGradient>
  </defs>
  <rect width="512" height="512" rx="80" fill="url(#bg)"/>
  <g fill="white" transform="translate(100, 100) scale(0.6)">
    <path d="M528 32H48C21.5 32 0 53.5 0 80v352c0 26.5 21.5 48 48 48h480c26.5 0 48-21.5 48-48V80c0-26.5-21.5-48-48-48zm0 400H48V80h480v352z"/>
    <path d="M132 176h72c6.6 0 12 5.4 12 12v72c0 6.6-5.4 12-12 12h-72c-6.6 0-12-5.4-12-12v-72c0-6.6 5.4-12 12-12z"/>
    <path d="M252 176h72c6.6 0 12 5.4 12 12v72c0 6.6-5.4 12-12 12h-72c-6.6 0-12-5.4-12-12v-72c0-6.6 5.4-12 12-12z"/>
    <path d="M372 176h72c6.6 0 12 5.4 12 12v72c0 6.6-5.4 12-12 12h-72c-6.6 0-12-5.4-12-12v-72c0-6.6 5.4-12 12-12z"/>
    <path d="M132 296h72c6.6 0 12 5.4 12 12v72c0 6.6-5.4 12-12 12h-72c-6.6 0-12-5.4-12-12v-72c0-6.6 5.4-12 12-12z"/>
    <path d="M252 296h192c6.6 0 12 5.4 12 12v72c0 6.6-5.4 12-12 12H252c-6.6 0-12-5.4-12-12v-72c0-6.6 5.4-12 12-12z"/>
  </g>
</svg>
